<?xml version="1.0" standalone="no"?>
<!DOCTYPE svg PUBLIC "-//W3C//DTD SVG 20010904//EN"
 "http://www.w3.org/TR/2001/REC-SVG-20010904/DTD/svg10.dtd">
<svg version="1.0" xmlns="http://www.w3.org/2000/svg"
 width="900.000000pt" height="900.000000pt" viewBox="0 0 900.000000 900.000000"
 preserveAspectRatio="xMidYMid meet">
<metadata>
Created by potrace 1.11, written by Peter Selinger 2001-2013
</metadata>
<g transform="translate(0.000000,900.000000) scale(0.100000,-0.100000)"
fill="#000000" stroke="none">
<path d="M3975 8990 c-27 -4 -70 -10 -95 -14 -654 -90 -1307 -339 -1855 -705
-122 -82 -313 -222 -346 -252 -8 -8 -39 -34 -69 -59 -109 -90 -339 -312 -440
-426 -491 -553 -823 -1172 -1007 -1874 -14 -52 -26 -102 -28 -110 -47 -222
-49 -233 -70 -385 -9 -66 -18 -133 -20 -150 -26 -179 -27 -790 -1 -955 2 -14
7 -51 11 -84 4 -32 8 -68 11 -80 2 -11 6 -37 8 -56 34 -252 126 -601 238 -900
177 -473 488 -987 829 -1371 346 -389 719 -689 1199 -963 132 -75 374 -187
540 -250 69 -27 134 -52 145 -56 57 -25 397 -122 474 -136 12 -3 51 -11 85
-19 33 -7 77 -16 96 -19 19 -3 49 -8 65 -11 88 -16 147 -25 210 -31 39 -3 72
-8 75 -9 16 -10 269 -20 480 -20 217 0 355 6 470 20 19 2 55 7 80 10 45 5 97
12 155 21 176 27 473 97 640 151 96 31 288 99 330 118 349 151 536 250 785
414 97 64 241 167 300 214 210 168 423 368 591 557 594 667 991 1544 1094
2419 4 30 8 61 10 70 26 136 26 835 0 966 -2 11 -7 47 -10 80 -7 66 -50 323
-66 395 -6 25 -12 52 -14 60 -17 81 -64 245 -102 362 -26 79 -48 145 -48 148
-1 3 -5 14 -10 25 -4 11 -25 63 -45 115 -129 327 -315 661 -554 996 -140 197
-419 502 -631 692 -614 547 -1415 933 -2215 1066 -19 3 -44 8 -56 10 -12 2
-45 7 -75 11 -30 4 -81 10 -114 15 -73 10 -980 10 -1050 0z"/>
</g>
</svg>
